<mxfile host="app.diagrams.net" modified="2022-10-09T15:07:04.871Z" agent="5.0 (Windows NT 10.0; Win64; x64) AppleWebKit/537.36 (KHTML, like Gecko) Chrome/105.0.0.0 Safari/537.36" etag="vqE35WlQza6MFwq7tM7X" version="20.0.4" type="github">
  <diagram id="_fR8ZBBd7SV-pSSH4zh0" name="Page-1">
    <mxGraphModel dx="911" dy="1516" grid="1" gridSize="10" guides="1" tooltips="1" connect="1" arrows="1" fold="1" page="1" pageScale="1" pageWidth="850" pageHeight="1100" math="0" shadow="0">
      <root>
        <mxCell id="0" />
        <mxCell id="1" parent="0" />
        <mxCell id="2dBajHecL5M4VIXFle-M-6" value="" style="rounded=0;whiteSpace=wrap;html=1;fontSize=6;" parent="1" vertex="1">
          <mxGeometry x="70" y="-430" width="150" height="310" as="geometry" />
        </mxCell>
        <mxCell id="SgBdB3519hFfRBgk3TLD-6" value="SERVER" style="rounded=1;whiteSpace=wrap;html=1;verticalAlign=top;" parent="1" vertex="1">
          <mxGeometry x="20" y="40.86" width="430" height="420" as="geometry" />
        </mxCell>
        <mxCell id="YNdM1Ef5C3AIkdkQwITm-17" value="repair{}" style="swimlane;childLayout=stackLayout;horizontal=1;startSize=30;horizontalStack=0;rounded=1;fontSize=14;fontStyle=0;strokeWidth=2;resizeParent=0;resizeLast=1;shadow=0;dashed=0;align=center;" parent="1" vertex="1">
          <mxGeometry x="15" y="120.86" width="270" height="170" as="geometry" />
        </mxCell>
        <mxCell id="YNdM1Ef5C3AIkdkQwITm-18" value="procedureArr : [&#xa;    procedure{},&#xa;    procedure{}&#xa;],&#xa;searchTags:[ &#39;word1&#39;, &#39;word2&#39;],&#xa;title:&quot;repair title here&quot;,&#xa;board:&quot;4473&quot;,&#xa;engine:&quot;cummins&quot;&#xa;" style="align=left;strokeColor=none;fillColor=none;spacingLeft=4;fontSize=12;verticalAlign=top;resizable=0;rotatable=0;part=1;" parent="YNdM1Ef5C3AIkdkQwITm-17" vertex="1">
          <mxGeometry y="30" width="270" height="140" as="geometry" />
        </mxCell>
        <mxCell id="YNdM1Ef5C3AIkdkQwITm-26" value="" style="edgeStyle=orthogonalEdgeStyle;rounded=0;orthogonalLoop=1;jettySize=auto;html=1;" parent="1" source="YNdM1Ef5C3AIkdkQwITm-20" target="YNdM1Ef5C3AIkdkQwITm-18" edge="1">
          <mxGeometry relative="1" as="geometry" />
        </mxCell>
        <mxCell id="YNdM1Ef5C3AIkdkQwITm-20" value="procedure{}" style="swimlane;childLayout=stackLayout;horizontal=1;startSize=30;horizontalStack=0;rounded=1;fontSize=14;fontStyle=0;strokeWidth=2;resizeParent=0;resizeLast=1;shadow=0;dashed=0;align=center;" parent="1" vertex="1">
          <mxGeometry x="70" y="320.86" width="160" height="120" as="geometry" />
        </mxCell>
        <mxCell id="YNdM1Ef5C3AIkdkQwITm-21" value="images: [ url1,url2...],&#xa;procedureNum: 1,&#xa;instructions:&quot; paragraph&quot;" style="align=left;strokeColor=none;fillColor=none;spacingLeft=4;fontSize=12;verticalAlign=top;resizable=0;rotatable=0;part=1;" parent="YNdM1Ef5C3AIkdkQwITm-20" vertex="1">
          <mxGeometry y="30" width="160" height="90" as="geometry" />
        </mxCell>
        <mxCell id="SgBdB3519hFfRBgk3TLD-3" style="edgeStyle=orthogonalEdgeStyle;rounded=0;orthogonalLoop=1;jettySize=auto;html=1;entryX=0.5;entryY=0;entryDx=0;entryDy=0;" parent="1" source="YNdM1Ef5C3AIkdkQwITm-28" target="SgBdB3519hFfRBgk3TLD-6" edge="1">
          <mxGeometry relative="1" as="geometry">
            <mxPoint x="705" y="20" as="targetPoint" />
            <Array as="points">
              <mxPoint x="670" />
              <mxPoint x="165" />
            </Array>
          </mxGeometry>
        </mxCell>
        <mxCell id="SgBdB3519hFfRBgk3TLD-5" value="Object ID" style="edgeLabel;html=1;align=center;verticalAlign=middle;resizable=0;points=[];" parent="SgBdB3519hFfRBgk3TLD-3" vertex="1" connectable="0">
          <mxGeometry x="-0.1002" y="2" relative="1" as="geometry">
            <mxPoint as="offset" />
          </mxGeometry>
        </mxCell>
        <mxCell id="SgBdB3519hFfRBgk3TLD-7" value="render repair info page" style="edgeLabel;html=1;align=center;verticalAlign=middle;resizable=0;points=[];" parent="SgBdB3519hFfRBgk3TLD-3" vertex="1" connectable="0">
          <mxGeometry x="0.2282" y="-1" relative="1" as="geometry">
            <mxPoint as="offset" />
          </mxGeometry>
        </mxCell>
        <mxCell id="YNdM1Ef5C3AIkdkQwITm-28" value="MONGO DB" style="rounded=1;arcSize=10;whiteSpace=wrap;html=1;align=center;" parent="1" vertex="1">
          <mxGeometry x="650" y="60" width="190" height="160" as="geometry" />
        </mxCell>
        <mxCell id="YNdM1Ef5C3AIkdkQwITm-29" style="edgeStyle=orthogonalEdgeStyle;rounded=0;orthogonalLoop=1;jettySize=auto;html=1;" parent="1" source="YNdM1Ef5C3AIkdkQwITm-18" target="YNdM1Ef5C3AIkdkQwITm-28" edge="1">
          <mxGeometry relative="1" as="geometry" />
        </mxCell>
        <mxCell id="SgBdB3519hFfRBgk3TLD-4" value="repair{}" style="edgeLabel;html=1;align=center;verticalAlign=middle;resizable=0;points=[];" parent="YNdM1Ef5C3AIkdkQwITm-29" vertex="1" connectable="0">
          <mxGeometry x="-0.1948" y="3" relative="1" as="geometry">
            <mxPoint as="offset" />
          </mxGeometry>
        </mxCell>
        <mxCell id="UgAMD2NZTh5MXzYb_I-q-1" value="Cloudinary DB" style="rounded=1;whiteSpace=wrap;html=1;" parent="1" vertex="1">
          <mxGeometry x="470" y="360" width="120" height="60" as="geometry" />
        </mxCell>
        <mxCell id="UgAMD2NZTh5MXzYb_I-q-3" style="edgeStyle=orthogonalEdgeStyle;rounded=0;orthogonalLoop=1;jettySize=auto;html=1;entryX=0;entryY=0.5;entryDx=0;entryDy=0;" parent="1" source="YNdM1Ef5C3AIkdkQwITm-21" target="UgAMD2NZTh5MXzYb_I-q-1" edge="1">
          <mxGeometry relative="1" as="geometry" />
        </mxCell>
        <mxCell id="UgAMD2NZTh5MXzYb_I-q-10" value="images upload" style="edgeLabel;html=1;align=center;verticalAlign=middle;resizable=0;points=[];" parent="UgAMD2NZTh5MXzYb_I-q-3" vertex="1" connectable="0">
          <mxGeometry x="-0.2653" relative="1" as="geometry">
            <mxPoint as="offset" />
          </mxGeometry>
        </mxCell>
        <mxCell id="UgAMD2NZTh5MXzYb_I-q-6" style="edgeStyle=orthogonalEdgeStyle;rounded=0;orthogonalLoop=1;jettySize=auto;html=1;entryX=1;entryY=0;entryDx=0;entryDy=0;exitX=0.5;exitY=0;exitDx=0;exitDy=0;" parent="1" source="UgAMD2NZTh5MXzYb_I-q-1" target="YNdM1Ef5C3AIkdkQwITm-20" edge="1">
          <mxGeometry relative="1" as="geometry">
            <mxPoint x="430" y="310.04761904761904" as="sourcePoint" />
          </mxGeometry>
        </mxCell>
        <mxCell id="UgAMD2NZTh5MXzYb_I-q-8" value="urls of images" style="edgeLabel;html=1;align=center;verticalAlign=middle;resizable=0;points=[];" parent="UgAMD2NZTh5MXzYb_I-q-6" vertex="1" connectable="0">
          <mxGeometry x="-0.4162" y="-1" relative="1" as="geometry">
            <mxPoint as="offset" />
          </mxGeometry>
        </mxCell>
        <mxCell id="2dBajHecL5M4VIXFle-M-1" value="_id:1&lt;br&gt;username:&lt;br&gt;password:&lt;br&gt;createdAt:&lt;br&gt;role: basic | admin&lt;br&gt;version:&lt;br&gt;email:&lt;br&gt;groups:[groupName]" style="rounded=0;whiteSpace=wrap;html=1;" parent="1" vertex="1">
          <mxGeometry x="85" y="-420" width="125" height="130" as="geometry" />
        </mxCell>
        <mxCell id="2dBajHecL5M4VIXFle-M-7" value="_id:2&lt;br&gt;username:&lt;br&gt;password:&lt;br&gt;createdAt:&lt;br&gt;role: basic | admin&lt;br&gt;version:&lt;br&gt;email:&lt;br&gt;groups:[groupName]" style="rounded=0;whiteSpace=wrap;html=1;" parent="1" vertex="1">
          <mxGeometry x="85" y="-280" width="125" height="130" as="geometry" />
        </mxCell>
        <mxCell id="2dBajHecL5M4VIXFle-M-8" value="&lt;font style=&quot;font-size: 14px;&quot;&gt;users&lt;/font&gt;" style="text;html=1;strokeColor=none;fillColor=none;align=center;verticalAlign=middle;whiteSpace=wrap;rounded=0;fontSize=6;" parent="1" vertex="1">
          <mxGeometry x="110" y="-460" width="60" height="30" as="geometry" />
        </mxCell>
        <mxCell id="2dBajHecL5M4VIXFle-M-10" value="" style="rounded=0;whiteSpace=wrap;html=1;fontSize=6;" parent="1" vertex="1">
          <mxGeometry x="240" y="-430" width="140" height="310" as="geometry" />
        </mxCell>
        <mxCell id="2dBajHecL5M4VIXFle-M-11" value="groups" style="text;html=1;strokeColor=none;fillColor=none;align=center;verticalAlign=middle;whiteSpace=wrap;rounded=0;fontSize=14;" parent="1" vertex="1">
          <mxGeometry x="280" y="-460" width="60" height="30" as="geometry" />
        </mxCell>
        <mxCell id="2dBajHecL5M4VIXFle-M-12" value="_id:&lt;br&gt;name:&lt;br&gt;members:[member]&lt;br&gt;createdby:user._id&lt;br&gt;admins:[createdby,]" style="rounded=0;whiteSpace=wrap;html=1;" parent="1" vertex="1">
          <mxGeometry x="250" y="-420" width="120" height="130" as="geometry" />
        </mxCell>
        <mxCell id="2dBajHecL5M4VIXFle-M-14" style="edgeStyle=orthogonalEdgeStyle;rounded=0;orthogonalLoop=1;jettySize=auto;html=1;fontSize=14;" parent="1" source="2dBajHecL5M4VIXFle-M-13" target="2dBajHecL5M4VIXFle-M-12" edge="1">
          <mxGeometry relative="1" as="geometry" />
        </mxCell>
        <mxCell id="2dBajHecL5M4VIXFle-M-13" value="_id:&lt;br&gt;userid:user._id&lt;br&gt;username:String&lt;br&gt;role:1|2|3" style="rounded=0;whiteSpace=wrap;html=1;" parent="1" vertex="1">
          <mxGeometry x="440" y="-430" width="110" height="130" as="geometry" />
        </mxCell>
        <mxCell id="2dBajHecL5M4VIXFle-M-15" value="member" style="text;html=1;strokeColor=none;fillColor=none;align=center;verticalAlign=middle;whiteSpace=wrap;rounded=0;fontSize=14;" parent="1" vertex="1">
          <mxGeometry x="465" y="-461" width="60" height="30" as="geometry" />
        </mxCell>
        <mxCell id="2dBajHecL5M4VIXFle-M-17" value="&lt;br&gt;user&amp;nbsp;&lt;br&gt;&lt;ul&gt;&lt;li&gt;basic - can create groups and delete created repairs&lt;/li&gt;&lt;li&gt;admin - can delete repairs from app&lt;/li&gt;&lt;/ul&gt;&lt;br&gt;group&amp;nbsp;&lt;br&gt;&lt;ul&gt;&lt;li&gt;admin can soft delete repairs belonging to group default is user who created it&lt;/li&gt;&lt;li&gt;members - can post repairs to group&lt;/li&gt;&lt;ul&gt;&lt;li&gt;level 1 - (default) view all repairs&lt;/li&gt;&lt;li&gt;level 2 - create repairs&lt;/li&gt;&lt;li&gt;level 3 - flag repairs for soft delete&lt;/li&gt;&lt;/ul&gt;&lt;/ul&gt;" style="text;html=1;strokeColor=none;fillColor=none;align=left;verticalAlign=middle;whiteSpace=wrap;rounded=0;fontSize=14;" parent="1" vertex="1">
          <mxGeometry y="-790" width="310" height="310" as="geometry" />
        </mxCell>
      </root>
    </mxGraphModel>
  </diagram>
</mxfile>
